# xmcd
#
# Track frame offsets: 
#        150
#        19029
#        36304
#        55492
#        75786
#        99275
#        120578
#        141074
#        160265
#        185664
#
# Disc length: 2721 seconds
#
# Revision: 2
# Processed by: cddbd v1.5.2PL0 Copyright (c) Steve Scherf et al.
# Submitted via: ExactAudioCopyFreeDBPlugin 1.0
#
DISCID=770a9f0a
DTITLE=Black Lillies - Hard to Please
DYEAR=2015
DGENRE=Folk/Rock
TTITLE0=Hard to Please
TTITLE1=That´s the Way it Goes Down
TTITLE2=Mercy
TTITLE3=The First Time
TTITLE4=Bound to Roam
TTITLE5=Dancin
TTITLE6=Desire
TTITLE7=40 Days
TTITLE8=Broken Shore
TTITLE9=Fade
EXTD=
EXTT0=
EXTT1=
EXTT2=
EXTT3=
EXTT4=
EXTT5=
EXTT6=
EXTT7=
EXTT8=
EXTT9=
PLAYORDER=
